<svg xmlns="http://www.w3.org/2000/svg" width="384pt" height="384pt" viewBox="0 0 384 384" version="1.1" class="iconadda">
<g>
<g id="Pickup_Truck_free_icon_xorOTdm-0"><path style="fill:none;stroke-width:30;stroke-linecap:round;stroke-linejoin:round;stroke:rgb(0%,0%,0%);stroke-opacity:1;stroke-miterlimit:10;" d="M 0.000418946 0.00183106 L -210.000209 0.00183106 " transform="matrix(0.749998,0,0,-0.749998,259.499686,259.501373)" />
</g><g id="Pickup_Truck_free_icon_xorOTdm-1"><path style="fill:none;stroke-width:30;stroke-linecap:round;stroke-linejoin:round;stroke:rgb(0%,0%,0%);stroke-opacity:1;stroke-miterlimit:10;" d="M 0.000765002 -0.0023537 L -240.999955 -0.0023537 L -240.999955 -120.002712 L -179.999773 -120.002712 " transform="matrix(0.749998,0,0,-0.749998,191.999426,169.502141)" />
</g><g id="Pickup_Truck_free_icon_xorOTdm-2"><path style="fill:none;stroke-width:30;stroke-linecap:round;stroke-linejoin:round;stroke:rgb(0%,0%,0%);stroke-opacity:1;stroke-miterlimit:10;" d="M 0.0000448243 -0.002533 L 31.000137 -0.002533 " transform="matrix(0.749998,0,0,-0.749998,11.249966,214.502007)" />
</g><g id="Pickup_Truck_free_icon_xorOTdm-3"><path style="fill:none;stroke-width:30;stroke-linecap:round;stroke-linejoin:round;stroke:rgb(0%,0%,0%);stroke-opacity:1;stroke-miterlimit:10;" d="M 0.00148518 -0.002533 L -44.998649 -0.002533 " transform="matrix(0.749998,0,0,-0.749998,372.748886,214.502007)" />
</g><g id="Pickup_Truck_free_icon_xorOTdm-4"><path style="fill:none;stroke-width:30;stroke-linecap:round;stroke-linejoin:round;stroke:rgb(0%,0%,0%);stroke-opacity:1;stroke-miterlimit:10;" d="M 0.000448243 0.00188965 L -29.999641 90.002159 L -150 90.002159 L -150 60.002069 L -330.000538 60.002069 L -330.000538 0.00188965 " transform="matrix(0.749998,0,0,-0.749998,304.499664,169.501417)" />
</g><g id="Pickup_Truck_free_icon_xorOTdm-5"><path style="fill:none;stroke-width:30;stroke-linecap:round;stroke-linejoin:round;stroke:rgb(0%,0%,0%);stroke-opacity:1;stroke-miterlimit:10;" d="M 0.000375001 0.0019336 L 0.000375001 -209.998694 " transform="matrix(0.749998,0,0,-0.749998,191.999719,102.00145)" />
</g><g id="Pickup_Truck_free_icon_xorOTdm-6"><path style="fill:none;stroke-width:30;stroke-linecap:round;stroke-linejoin:round;stroke:rgb(0%,0%,0%);stroke-opacity:1;stroke-miterlimit:10;" d="M 0.000406407 0.000496056 C 0.000406407 -16.567262 -13.431925 -29.999594 -29.999683 -29.999594 C -46.567441 -29.999594 -59.999773 -16.567262 -59.999773 0.000496056 C -59.999773 16.568254 -46.567441 30.000586 -29.999683 30.000586 C -13.431925 30.000586 0.000406407 16.568254 0.000406407 0.000496056 Z M 0.000406407 0.000496056 " transform="matrix(0.749998,0,0,-0.749998,101.999695,259.500372)" />
</g><g id="Pickup_Truck_free_icon_xorOTdm-7"><path style="fill:none;stroke-width:30;stroke-linecap:round;stroke-linejoin:round;stroke:rgb(0%,0%,0%);stroke-opacity:1;stroke-miterlimit:10;" d="M 0.00121325 0.000496056 C 0.00121325 -16.567262 -13.431119 -29.999594 -29.998876 -29.999594 C -46.566634 -29.999594 -59.998966 -16.567262 -59.998966 0.000496056 C -59.998966 16.568254 -46.566634 30.000586 -29.998876 30.000586 C -13.431119 30.000586 0.00121325 16.568254 0.00121325 0.000496056 Z M 0.00121325 0.000496056 " transform="matrix(0.749998,0,0,-0.749998,304.49909,259.500372)" />
</g><g id="Pickup_Truck_free_icon_xorOTdm-8"><path style="fill:none;stroke-width:30;stroke-linecap:round;stroke-linejoin:round;stroke:rgb(0%,0%,0%);stroke-opacity:1;stroke-miterlimit:10;" d="M 0.000406407 0.00103395 L 0.000406407 -59.999145 " transform="matrix(0.749998,0,0,-0.749998,101.999695,124.500775)" />
</g><g id="Pickup_Truck_free_icon_xorOTdm-9"><path style="fill:none;stroke-width:30;stroke-linecap:round;stroke-linejoin:round;stroke:rgb(0%,0%,0%);stroke-opacity:1;stroke-miterlimit:10;" d="M 0.000585705 -0.0023537 L 0.000585705 59.997826 " transform="matrix(0.749998,0,0,-0.749998,146.999561,169.502141)" />
</g><g id="Pickup_Truck_free_icon_xorOTdm-10"><path style="fill:none;stroke-width:30;stroke-linecap:round;stroke-linejoin:round;stroke:rgb(0%,0%,0%);stroke-opacity:1;stroke-miterlimit:10;" d="M 0.000944299 -0.00208475 L 0.000944299 -90.002354 L 151.001396 -90.002354 C 167.569153 -90.002354 181.001485 -103.434686 181.001485 -120.002443 L 181.001485 -210.002712 L 90.001213 -209.997504 " transform="matrix(0.749998,0,0,-0.749998,236.999292,102.002343)" />
</g></g>
</svg>